<svg id="Capa_1" enable-background="new 0 0 512 512" height="512" viewBox="0 0 512 512" width="512" xmlns="http://www.w3.org/2000/svg"><g><g><g><path d="m.001 263.788c.329 97.565 78.664 175.931 176.229 176.298 55.575.209 105.2-25.149 137.769-65.037 9.066-11.104 20.831-19.693 34.181-24.914l88.325-34.54c45.531-17.806 75.495-61.698 75.495-110.587v-54.006l-511.999 58.779z" fill="#eaac9d"/><path d="m419.801 161.587c-4.895 37.968-15.603 76.746-32.581 114.691-12.365 27.635-27.282 53.078-44.143 76.056 1.673-.787 3.374-1.522 5.103-2.198l88.325-34.54c45.531-17.807 75.495-61.699 75.495-110.588v-54.006z" fill="#df9380"/><path d="m176.911 32.26c-97.909 0-177.24 79.536-176.91 177.521.33 97.565 78.664 175.932 176.229 176.299 55.575.209 105.2-25.149 137.769-65.037 9.066-11.104 20.831-19.693 34.181-24.914l88.325-34.54c45.531-17.806 75.495-61.698 75.495-110.587 0-65.579-53.162-118.742-118.742-118.742z" fill="#ffddce"/><path d="m413.624 34.006c17.854 73.429 10.488 159.819-26.404 242.271-.84 1.877-1.705 3.731-2.567 5.588l51.852-20.277c45.531-17.805 75.495-61.697 75.495-110.586 0-58.635-42.501-107.337-98.376-116.996z" fill="#ffcbbe"/><path d="m176.355 352.779c-38.336-.144-74.26-15.04-101.151-41.942s-41.773-62.831-41.902-101.169c-.13-38.459 14.746-74.638 41.889-101.873 27.144-27.236 63.269-42.235 101.72-42.235h216.348c47.112 0 85.441 38.328 85.441 85.441 0 17.26-5.144 33.919-14.875 48.174-9.732 14.255-23.372 25.113-39.448 31.399l-88.325 34.541c-18.624 7.283-35.17 19.338-47.847 34.866-27.396 33.553-67.964 52.799-111.291 52.799-.003 0-.559-.001-.559-.001z" fill="#dd636e"/><path d="m403.554 66.203c-5.519 63.569-29.36 130.233-72.039 190.48-4.073 5.75-8.271 11.339-12.56 16.802 5.45-3.244 11.166-6.051 17.096-8.37l88.325-34.541c16.075-6.287 29.716-17.144 39.448-31.399s14.875-30.914 14.875-48.174c0-43.625-32.873-79.694-75.145-84.798z" fill="#da4a54"/></g><circle cx="159.22" cy="186.276" fill="#e4f6ff" r="37.463"/></g><g><circle cx="256" cy="375.675" fill="#e28086" r="104.065"/><path d="m316.547 291.063c12.23 17.06 19.453 37.954 19.453 60.547 0 57.474-46.591 104.065-104.065 104.065-22.593 0-43.486-7.223-60.547-19.453 18.882 26.34 49.731 43.518 84.612 43.518 57.474 0 104.065-46.591 104.065-104.065 0-34.881-17.179-65.73-43.518-84.612z" fill="#dd636e"/><path d="m285.433 375.675 14.794-14.794c8.129-8.128 8.129-21.306 0-29.434-8.128-8.128-21.306-8.128-29.433.001l-14.794 14.793-14.793-14.794c-8.129-8.129-21.307-8.128-29.434-.001-8.128 8.128-8.128 21.307-.001 29.434l14.794 14.794-14.794 14.794c-8.128 8.128-8.128 21.306.001 29.434 4.064 4.064 9.39 6.096 14.717 6.096 5.326 0 10.653-2.032 14.717-6.096l14.793-14.793 14.794 14.794c4.064 4.065 9.389 6.096 14.717 6.096 5.326 0 10.653-2.033 14.717-6.096 8.129-8.128 8.129-21.307 0-29.434z" fill="#e4f6ff"/></g></g></svg>